<?xml version="1.0" standalone="no"?><!DOCTYPE svg PUBLIC "-//W3C//DTD SVG 1.1//EN" "http://www.w3.org/Graphics/SVG/1.1/DTD/svg11.dtd"><svg t="1540296024866" class="icon" style="" viewBox="0 0 1024 1024" version="1.1" xmlns="http://www.w3.org/2000/svg" p-id="2013" id="mx_n_1540296024870" xmlns:xlink="http://www.w3.org/1999/xlink" width="128" height="128"><defs><style type="text/css"></style></defs><path d="M592.015 89.5h21.273l206.727 242-5 14.448h-178L606.136 331.5l-26.121-41z" fill="#FFFFFF" p-id="2014" data-spm-anchor-id="a313x.7781069.0.i16" class=""></path><path d="M825.967 342.083c-2.251-6.11-3.876-11.552-7.867-16.233L630.487 104.904c-4.879-5.722-10.623-10.068-17.9-13.426C605.31 88.12 598.078 87 590.558 87H232.75c-13.705 0-30.509 4.779-40.966 15.236C181.327 112.692 173 125.949 173 139.654v728.317c0 13.705 8.327 27.649 18.784 38.106S219.045 922 232.75 922h546.237c13.705 0 24.14-5.467 34.597-15.924s12.415-24.4 12.415-38.106V360.6c0.001-6.151 2.219-12.407-0.032-18.517z m-15.994-8.338c-0.103-0.278-0.266-0.745-0.373-0.745H653.723c-12.514 0-26.941-2.004-36.488-11.551-9.548-9.548-16.235-19.291-16.235-31.805V103.735c0 0.556 6.601 0.983 8.219 1.73 6.644 3.067 13.917 7.229 18.372 12.454l172.878 201.588c3.463 4.06 7.091 2.494 9.131 13.494h0.637c-0.112-0.001-0.145 1.067-0.264 0.744z" fill="#E3EBFF" p-id="2015" data-spm-anchor-id="a313x.7781069.0.i15" class=""></path><path d="M910.282 573.368C899.826 562.911 889.088 558 875.383 558H837V360.601c0-1.402 3.251-2.808 3.361-4.22 0.403-5.172 2.898-12.253-0.136-20.48-2.38-6.459-4.478-13.775-10.178-20.454L642.562 94.48c-6.6-7.745-14.057-11.176-20.766-14.199l-2.478-1.161c-7.494-3.462-14.559-3.907-19.909-3.907-1.621 0-3.224 0.352-4.861 0.399-1.329 0.042-2.644 0.388-3.988 0.388H232.75c-22.681 0-43.538 5.652-55.299 17.409C166.715 104.156 151 118.85 151 139.654v728.317c0 17.514 12.441 37.912 26.456 51.938C191.477 933.92 215.236 943 232.75 943h546.237c20.804 0 32.677-12.354 43.429-23.096C834.169 908.147 837 890.657 837 867.971V793h38.383c13.705 0 24.443-5.23 34.899-15.687C920.739 766.856 923 753.15 923 739.444V610.918c0-13.705-2.261-27.094-12.718-37.55zM601 109.064l4.418 0.503c5.376 2.427 9.867 3.866 11.702 6.015L802.915 333H647.402c-9.387 0-23.549-5.069-30.965-12.49-7.369-7.363-15.437-18.524-15.437-28.006v-183.44z m204 758.907c0 9.523 1.621 22.414-5.24 29.276-9.576 9.575-13.644 13.753-20.772 13.753H232.75c-8.849 0-24.355-5.967-32.137-13.748-7.786-7.788-16.613-20.433-16.613-29.281V139.654c0-7.128 7.038-14.018 16.609-23.588 6.867-6.867 22.618-8.066 32.142-8.066H569v184.504c0 18.111 11.297 37.187 24.78 50.664C607.314 356.703 629.391 365 647.402 365H805v193H436.251c-13.706 0-30.76 4.911-41.217 15.368C384.577 583.824 376 597.213 376 610.918v128.526c0 13.705 8.577 27.412 19.034 37.869C405.491 787.77 422.545 793 436.251 793H805v74.971z" fill="#5679CE" p-id="2016" data-spm-anchor-id="a313x.7781069.0.i13" class=""></path><path d="M526.503 686.037v37.288h-22.734v-106.76h53.307c9.706 0 16.646 0.69 20.804 2.081 7.044 2.343 12.593 7.196 16.651 14.56 2.986 5.554 4.482 11.579 4.482 18.095 0 5.439-0.988 10.585-2.965 15.438-1.972 4.864-4.722 8.838-8.242 11.934-3.201 2.772-6.589 4.696-10.161 5.753-3.577 1.077-8.462 1.611-14.649 1.611h-36.493z m0-19.057h30.892c5.544 0 9.445-0.847 11.683-2.552 3.305-2.667 4.963-7.311 4.963-13.932 0-7.144-2.51-11.736-7.526-13.765-1.815-0.743-4.696-1.119-8.64-1.119h-31.373l0.001 31.368zM700.015 616.565v106.76h-22.572v-44.181H636.15v44.181h-22.734v-106.76h22.734v43.532h41.294v-43.532h22.571zM744.515 686.037v37.288h-22.734v-106.76h53.307c9.706 0 16.646 0.69 20.804 2.081 7.044 2.343 12.593 7.196 16.652 14.56 2.986 5.554 4.482 11.579 4.482 18.095 0 5.439-0.988 10.585-2.965 15.438-1.972 4.864-4.722 8.838-8.242 11.934-3.201 2.772-6.59 4.696-10.161 5.753-3.577 1.077-8.462 1.611-14.649 1.611h-36.494z m0-19.057h30.892c5.544 0 9.445-0.847 11.683-2.552 3.305-2.667 4.963-7.311 4.963-13.932 0-7.144-2.51-11.736-7.526-13.765-1.815-0.743-4.696-1.119-8.64-1.119h-31.373l0.001 31.368z" fill="#FFFFFF" p-id="2017" data-spm-anchor-id="a313x.7781069.0.i14" class=""></path><path d="M332.86 350.607h21.421V329.06h74.974v21.673H332.86v-0.126z m-21.421 0.126h-21.274V329.06h42.695v21.547h-21.421v0.126z m182.152 0h-42.915V329.06h42.915v21.673z m-139.31-32.132v-0.125H332.86v0.125h-42.695v-22.007h96.248v21.882h21.421v-21.882h53.553v21.882m10.71-96.856h21.494v22.007h-21.494V221.62z m0-10.25h-21.421v0.125h-10.711v-21.673h53.626v21.673h-21.494v-0.125z m-21.421 32.257h-53.553V221.62h53.553v22.007z m-53.553-32.257h-21.421v0.125H343.57v-21.673h74.974v21.673h-21.421v-0.125z m-106.959-21.547h31.985v21.673h-31.985v-21.673z m85.538 53.804h-10.711v-0.125H343.57v0.125h-53.406V221.62h85.538v22.007z m-32.132 32.007h21.421v-21.547h21.494v10.837h-0.073v10.836h-96.248v-21.673h53.406v21.547z m-32.131 107.23h-21.274v-22.007h21.274v22.007z m75.046 0H332.86v-22.007h53.626v22.007h-0.001z" fill="#5679CE" p-id="2018"></path></svg>